<svg width="42" height="30" viewBox="0 0 42 30" fill="none" xmlns="http://www.w3.org/2000/svg">
<rect x="0.666748" width="41.3052" height="30" rx="6" fill="#FFF0BB"/>
<g clip-path="url(#clip0_2104_242)">
<path d="M25.7836 22.9931C25.5894 22.9931 25.3962 22.9334 25.2298 22.8147L21.3194 20.0103L17.4089 22.8147C17.2468 22.9313 17.0521 22.9937 16.8526 22.993C16.653 22.9923 16.4587 22.9285 16.2975 22.8109C16.1361 22.6939 16.0158 22.529 15.9536 22.3396C15.8913 22.1503 15.8904 21.9461 15.9509 21.7562L17.4093 17.0492L13.5339 14.3184C13.3733 14.1998 13.2541 14.0338 13.193 13.8438C13.1319 13.6537 13.1321 13.4493 13.1936 13.2594C13.2556 13.0699 13.3755 12.9047 13.5365 12.7872C13.6974 12.6696 13.8913 12.6056 14.0906 12.6042L18.8904 12.597L20.4185 8.00677C20.4816 7.81767 20.6025 7.65321 20.7643 7.53667C20.926 7.42013 21.1203 7.35742 21.3196 7.35742C21.5189 7.35742 21.7132 7.42013 21.8749 7.53667C22.0366 7.65321 22.1576 7.81767 22.2207 8.00677L23.7229 12.597L28.5472 12.6042C28.7467 12.6053 28.9408 12.6693 29.102 12.787C29.2631 12.9048 29.383 13.0703 29.4447 13.2601C29.5064 13.4499 29.5067 13.6543 29.4456 13.8443C29.3845 14.0342 29.265 14.2001 29.1043 14.3184L25.2289 17.0492L26.6873 21.7562C26.748 21.9461 26.7471 22.1502 26.685 22.3396C26.6229 22.5289 26.5026 22.6939 26.3412 22.8109C26.1795 22.9295 25.9841 22.9933 25.7836 22.9931Z" fill="#FFAC33"/>
</g>
<defs>
<clipPath id="clip0_2104_242">
<rect width="17.3052" height="17.3052" fill="white" transform="translate(12.6667 6.34766)"/>
</clipPath>
</defs>
</svg>
