<svg width="81" height="30" viewBox="0 0 81 30" fill="none" xmlns="http://www.w3.org/2000/svg">
<rect x="0.666748" width="79.9155" height="30" rx="6" fill="#FFF0BB"/>
<g clip-path="url(#clip0_2104_12)">
<path d="M25.7836 22.9931C25.5894 22.9931 25.3962 22.9334 25.2298 22.8147L21.3194 20.0103L17.4089 22.8147C17.2468 22.9313 17.0521 22.9937 16.8526 22.993C16.653 22.9923 16.4587 22.9285 16.2975 22.8109C16.1361 22.6939 16.0158 22.529 15.9536 22.3396C15.8913 22.1503 15.8904 21.9461 15.9509 21.7562L17.4093 17.0492L13.5339 14.3184C13.3733 14.1998 13.2541 14.0338 13.193 13.8438C13.1319 13.6537 13.1321 13.4493 13.1936 13.2594C13.2556 13.0699 13.3755 12.9047 13.5365 12.7872C13.6974 12.6696 13.8913 12.6056 14.0906 12.6042L18.8904 12.597L20.4185 8.00677C20.4816 7.81767 20.6025 7.65321 20.7643 7.53667C20.926 7.42013 21.1203 7.35742 21.3196 7.35742C21.5189 7.35742 21.7132 7.42013 21.8749 7.53667C22.0366 7.65321 22.1576 7.81767 22.2207 8.00677L23.7229 12.597L28.5472 12.6042C28.7467 12.6053 28.9408 12.6693 29.102 12.787C29.2631 12.9048 29.383 13.0703 29.4447 13.2601C29.5064 13.4499 29.5067 13.6543 29.4456 13.8443C29.3845 14.0342 29.265 14.2001 29.1043 14.3184L25.2289 17.0492L26.6873 21.7562C26.748 21.9461 26.7471 22.1502 26.685 22.3396C26.6229 22.5289 26.5026 22.6939 26.3412 22.8109C26.1795 22.9295 25.9841 22.9933 25.7836 22.9931Z" fill="#FFAC33"/>
</g>
<path d="M45.0888 22.9931C44.8946 22.9931 44.7013 22.9334 44.535 22.8147L40.6245 20.0103L36.714 22.8147C36.552 22.9313 36.3573 22.9937 36.1577 22.993C35.9581 22.9923 35.7639 22.9285 35.6027 22.8109C35.4413 22.6939 35.321 22.529 35.2587 22.3396C35.1965 22.1503 35.1956 21.9461 35.2561 21.7562L36.7145 17.0492L32.8391 14.3184C32.6785 14.1998 32.5592 14.0338 32.4982 13.8438C32.4371 13.6537 32.4373 13.4493 32.4988 13.2594C32.5608 13.0699 32.6807 12.9047 32.8417 12.7872C33.0026 12.6696 33.1965 12.6056 33.3958 12.6042L38.1956 12.597L39.7237 8.00677C39.7868 7.81767 39.9077 7.65321 40.0694 7.53667C40.2312 7.42013 40.4254 7.35742 40.6248 7.35742C40.8241 7.35742 41.0184 7.42013 41.1801 7.53667C41.3418 7.65321 41.4628 7.81767 41.5258 8.00677L43.028 12.597L47.8523 12.6042C48.0519 12.6053 48.246 12.6693 48.4071 12.787C48.5683 12.9048 48.6882 13.0703 48.7499 13.2601C48.8115 13.4499 48.8119 13.6543 48.7507 13.8443C48.6896 14.0342 48.5702 14.2001 48.4095 14.3184L44.5341 17.0492L45.9925 21.7562C46.0531 21.9461 46.0523 22.1502 45.9902 22.3396C45.928 22.5289 45.8077 22.6939 45.6464 22.8109C45.4847 22.9295 45.2893 22.9933 45.0888 22.9931Z" fill="#FFAC33"/>
<g clip-path="url(#clip1_2104_12)">
<path d="M64.394 22.9931C64.1998 22.9931 64.0065 22.9334 63.8402 22.8147L59.9297 20.0103L56.0192 22.8147C55.8572 22.9313 55.6625 22.9937 55.4629 22.993C55.2633 22.9923 55.069 22.9285 54.9078 22.8109C54.7465 22.6939 54.6261 22.529 54.5639 22.3396C54.5017 22.1503 54.5008 21.9461 54.5613 21.7562L56.0197 17.0492L52.1443 14.3184C51.9837 14.1998 51.8644 14.0338 51.8033 13.8438C51.7423 13.6537 51.7425 13.4493 51.804 13.2594C51.8659 13.0699 51.9859 12.9047 52.1468 12.7872C52.3078 12.6696 52.5016 12.6056 52.701 12.6042L57.5007 12.597L59.0289 8.00677C59.0919 7.81767 59.2129 7.65321 59.3746 7.53667C59.5363 7.42013 59.7306 7.35742 59.9299 7.35742C60.1293 7.35742 60.3236 7.42013 60.4853 7.53667C60.647 7.65321 60.768 7.81767 60.831 8.00677L62.3332 12.597L67.1575 12.6042C67.3571 12.6053 67.5512 12.6693 67.7123 12.787C67.8734 12.9048 67.9934 13.0703 68.055 13.2601C68.1167 13.4499 68.117 13.6543 68.0559 13.8443C67.9948 14.0342 67.8754 14.2001 67.7146 14.3184L63.8392 17.0492L65.2977 21.7562C65.3583 21.9461 65.3575 22.1502 65.2953 22.3396C65.2332 22.5289 65.1129 22.6939 64.9516 22.8109C64.7899 22.9295 64.5945 22.9933 64.394 22.9931Z" fill="#FFAC33"/>
</g>
<defs>
<clipPath id="clip0_2104_12">
<rect width="17.3052" height="17.3052" fill="white" transform="translate(12.6667 6.34766)"/>
</clipPath>
<clipPath id="clip1_2104_12">
<rect width="17.3052" height="17.3052" fill="white" transform="translate(51.2771 6.34766)"/>
</clipPath>
</defs>
</svg>
